<?xml version="1.0" encoding="UTF-8"?>
<svg xmlns="http://www.w3.org/2000/svg" xmlns:xlink="http://www.w3.org/1999/xlink" width="63px" height="60px" viewBox="0 0 63 60" version="1.1">
<g id="surface1">
<path style=" stroke:none;fill-rule:nonzero;fill:rgb(91.372549%,91.764706%,92.156863%);fill-opacity:1;" d="M 15.460938 29.253906 C 15.460938 37.050781 21.753906 43.371094 29.515625 43.371094 C 37.277344 43.371094 43.570312 37.050781 43.570312 29.253906 C 43.570312 21.457031 37.277344 15.136719 29.515625 15.136719 C 21.753906 15.136719 15.460938 21.457031 15.460938 29.253906 Z M 15.460938 29.253906 "/>
<path style=" stroke:none;fill-rule:nonzero;fill:rgb(16.470588%,31.372549%,50.980392%);fill-opacity:1;" d="M 38.652344 25.332031 L 31.078125 25.332031 L 31.078125 23.765625 L 37.792969 23.765625 L 41.460938 18.273438 L 48.253906 18.273438 L 48.253906 19.84375 L 42.242188 19.84375 Z M 38.105469 28.46875 L 49.816406 28.46875 L 49.816406 30.039062 L 38.105469 30.039062 Z M 38.105469 28.46875 "/>
<path style=" stroke:none;fill-rule:nonzero;fill:rgb(63.921569%,83.137255%,100%);fill-opacity:1;" d="M 45.132812 19.449219 C 45.132812 20.96875 46.355469 22.195312 47.863281 22.195312 C 49.375 22.195312 50.597656 20.96875 50.597656 19.449219 C 50.597656 17.933594 49.375 16.707031 47.863281 16.707031 C 46.355469 16.707031 45.132812 17.933594 45.132812 19.449219 Z M 45.132812 19.449219 "/>
<path style=" stroke:none;fill-rule:nonzero;fill:rgb(16.470588%,31.372549%,50.980392%);fill-opacity:1;" d="M 47.863281 22.980469 C 45.914062 22.980469 44.351562 21.410156 44.351562 19.449219 C 44.351562 17.488281 45.914062 15.921875 47.863281 15.921875 C 49.816406 15.921875 51.378906 17.488281 51.378906 19.449219 C 51.378906 21.410156 49.816406 22.980469 47.863281 22.980469 Z M 47.863281 17.488281 C 46.773438 17.488281 45.914062 18.351562 45.914062 19.449219 C 45.914062 20.550781 46.773438 21.410156 47.863281 21.410156 C 48.957031 21.410156 49.816406 20.550781 49.816406 19.449219 C 49.816406 18.351562 48.957031 17.488281 47.863281 17.488281 Z M 48.253906 39.449219 L 41.460938 39.449219 L 37.949219 34.746094 L 36.542969 34.746094 L 36.542969 33.175781 L 38.730469 33.175781 L 42.242188 37.882812 L 48.253906 37.882812 Z M 48.253906 39.449219 "/>
<path style=" stroke:none;fill-rule:nonzero;fill:rgb(63.921569%,83.137255%,100%);fill-opacity:1;" d="M 45.132812 39.058594 C 45.132812 37.570312 46.382812 36.3125 47.863281 36.3125 C 49.347656 36.3125 50.597656 37.570312 50.597656 39.058594 C 50.597656 40.550781 49.347656 41.804688 47.863281 41.804688 C 46.382812 41.804688 45.132812 40.550781 45.132812 39.058594 Z M 45.132812 39.058594 "/>
<path style=" stroke:none;fill-rule:nonzero;fill:rgb(16.470588%,31.372549%,50.980392%);fill-opacity:1;" d="M 47.863281 42.589844 C 45.914062 42.589844 44.351562 41.019531 44.351562 39.058594 C 44.351562 37.097656 45.914062 35.53125 47.863281 35.53125 C 49.816406 35.53125 51.378906 37.097656 51.378906 39.058594 C 51.378906 41.019531 49.816406 42.589844 47.863281 42.589844 Z M 47.863281 37.097656 C 46.773438 37.097656 45.914062 37.960938 45.914062 39.058594 C 45.914062 40.15625 46.773438 41.019531 47.863281 41.019531 C 48.957031 41.019531 49.816406 40.15625 49.816406 39.058594 C 49.816406 37.960938 48.957031 37.097656 47.863281 37.097656 Z M 47.863281 37.097656 "/>
<path style=" stroke:none;fill-rule:nonzero;fill:rgb(63.921569%,83.137255%,100%);fill-opacity:1;" d="M 47.472656 28.863281 C 47.472656 30.378906 48.699219 31.609375 50.207031 31.609375 C 51.714844 31.609375 52.941406 30.378906 52.941406 28.863281 C 52.941406 27.347656 51.714844 26.117188 50.207031 26.117188 C 48.699219 26.117188 47.472656 27.347656 47.472656 28.863281 Z M 47.472656 28.863281 "/>
<path style=" stroke:none;fill-rule:nonzero;fill:rgb(16.470588%,31.372549%,50.980392%);fill-opacity:1;" d="M 50.207031 32.390625 C 48.253906 32.390625 46.695312 30.824219 46.695312 28.863281 C 46.695312 26.902344 48.253906 25.332031 50.207031 25.332031 C 52.160156 25.332031 53.722656 26.902344 53.722656 28.863281 C 53.722656 30.824219 52.160156 32.390625 50.207031 32.390625 Z M 50.207031 26.902344 C 49.113281 26.902344 48.253906 27.765625 48.253906 28.863281 C 48.253906 29.960938 49.113281 30.824219 50.207031 30.824219 C 51.300781 30.824219 52.160156 29.960938 52.160156 28.863281 C 52.160156 27.765625 51.300781 26.902344 50.207031 26.902344 Z M 41.148438 49.648438 L 34.589844 40.234375 L 29.515625 40.234375 L 29.515625 38.667969 L 35.371094 38.667969 L 42.398438 48.707031 Z M 41.148438 49.648438 "/>
<path style=" stroke:none;fill-rule:nonzero;fill:rgb(63.921569%,83.137255%,100%);fill-opacity:1;" d="M 38.886719 48.46875 C 38.886719 49.988281 40.109375 51.214844 41.617188 51.214844 C 43.128906 51.214844 44.351562 49.988281 44.351562 48.46875 C 44.351562 46.953125 43.128906 45.726562 41.617188 45.726562 C 40.109375 45.726562 38.886719 46.953125 38.886719 48.46875 Z M 38.886719 48.46875 "/>
<path style=" stroke:none;fill-rule:nonzero;fill:rgb(16.470588%,31.372549%,50.980392%);fill-opacity:1;" d="M 41.617188 52 C 39.667969 52 38.105469 50.429688 38.105469 48.46875 C 38.105469 46.511719 39.667969 44.941406 41.617188 44.941406 C 43.570312 44.941406 45.132812 46.511719 45.132812 48.46875 C 45.132812 50.429688 43.570312 52 41.617188 52 Z M 41.617188 46.511719 C 40.523438 46.511719 39.667969 47.371094 39.667969 48.46875 C 39.667969 49.570312 40.523438 50.429688 41.617188 50.429688 C 42.710938 50.429688 43.570312 49.570312 43.570312 48.46875 C 43.570312 47.371094 42.710938 46.511719 41.617188 46.511719 Z M 36.855469 19.058594 L 34.980469 19.058594 L 34.980469 17.488281 L 36.152344 17.488281 L 42.164062 10.511719 L 43.335938 11.53125 Z M 36.855469 19.058594 "/>
<path style=" stroke:none;fill-rule:nonzero;fill:rgb(63.921569%,83.137255%,100%);fill-opacity:1;" d="M 40.445312 11.609375 C 40.445312 13.125 41.671875 14.351562 43.179688 14.351562 C 44.6875 14.351562 45.914062 13.125 45.914062 11.609375 C 45.914062 10.089844 44.6875 8.863281 43.179688 8.863281 C 41.671875 8.863281 40.445312 10.089844 40.445312 11.609375 Z M 40.445312 11.609375 "/>
<path style=" stroke:none;fill-rule:nonzero;fill:rgb(16.470588%,31.372549%,50.980392%);fill-opacity:1;" d="M 43.179688 15.136719 C 41.226562 15.136719 39.667969 13.570312 39.667969 11.609375 C 39.667969 9.648438 41.226562 8.078125 43.179688 8.078125 C 45.132812 8.078125 46.695312 9.648438 46.695312 11.609375 C 46.695312 13.570312 45.132812 15.136719 43.179688 15.136719 Z M 43.179688 9.648438 C 42.085938 9.648438 41.226562 10.511719 41.226562 11.609375 C 41.226562 12.707031 42.085938 13.570312 43.179688 13.570312 C 44.273438 13.570312 45.132812 12.707031 45.132812 11.609375 C 45.132812 10.511719 44.273438 9.648438 43.179688 9.648438 Z M 32.636719 49.648438 L 24.832031 49.648438 L 24.832031 45.410156 C 23.503906 45.019531 22.175781 44.46875 21.003906 43.765625 L 18.113281 46.429688 L 12.570312 40.785156 L 14.992188 37.648438 C 14.210938 36.234375 13.664062 34.511719 13.273438 33.097656 L 9.214844 33.097656 L 9.214844 24.46875 L 13.351562 24.46875 C 13.742188 23.292969 14.210938 22.039062 14.914062 20.785156 L 12.570312 18.039062 L 18.113281 12.390625 L 21.003906 14.746094 C 22.097656 14.117188 23.425781 13.570312 24.832031 13.175781 L 24.832031 9.570312 L 32.636719 9.570312 L 32.636719 13.488281 L 31.078125 13.488281 L 31.078125 11.136719 L 26.390625 11.136719 L 26.390625 14.429688 L 25.765625 14.589844 C 23.972656 14.980469 22.566406 15.609375 21.316406 16.390625 L 20.847656 16.707031 L 18.191406 14.511719 L 14.679688 18.117188 L 16.945312 20.628906 L 16.632812 21.175781 C 15.773438 22.667969 15.070312 24.078125 14.757812 25.488281 L 14.601562 26.117188 L 10.777344 26.117188 L 10.777344 31.609375 L 14.523438 31.609375 L 14.679688 32.234375 C 15.070312 34.117188 15.851562 36.078125 16.632812 37.332031 L 16.945312 37.804688 L 14.679688 40.707031 L 18.191406 44.3125 L 20.847656 41.882812 L 21.316406 42.195312 C 22.644531 43.058594 24.207031 43.6875 25.765625 44.078125 L 26.390625 44.234375 L 26.390625 48.078125 L 31.078125 48.078125 L 31.078125 44.15625 L 32.636719 44.15625 Z M 32.636719 49.648438 "/>
<path style=" stroke:none;fill-rule:nonzero;fill:rgb(16.470588%,31.372549%,50.980392%);fill-opacity:1;" d="M 31.078125 34.746094 L 29.4375 34.746094 C 26.46875 34.746094 23.894531 32.234375 23.894531 29.253906 C 23.894531 26.273438 26.390625 23.765625 29.4375 23.765625 L 31.078125 23.765625 L 31.078125 25.332031 L 29.4375 25.332031 C 27.328125 25.332031 25.453125 27.136719 25.453125 29.253906 C 25.453125 31.371094 27.25 33.175781 29.4375 33.175781 L 31.078125 33.175781 Z M 31.078125 34.746094 "/>
<path style=" stroke:none;fill-rule:nonzero;fill:rgb(16.470588%,31.372549%,50.980392%);fill-opacity:1;" d="M 29.515625 40.234375 C 23.035156 40.234375 17.804688 35.292969 17.804688 29.253906 C 17.804688 22.980469 23.269531 17.488281 29.515625 17.488281 L 29.515625 19.058594 C 24.128906 19.058594 19.363281 23.84375 19.363281 29.253906 C 19.363281 34.429688 23.894531 38.667969 29.515625 38.667969 Z M 31.078125 28.46875 L 32.636719 28.46875 L 32.636719 30.039062 L 31.078125 30.039062 Z M 34.980469 28.46875 L 36.542969 28.46875 L 36.542969 30.039062 L 34.980469 30.039062 Z M 31.078125 17.488281 L 32.636719 17.488281 L 32.636719 19.058594 L 31.078125 19.058594 Z M 32.636719 33.175781 L 34.980469 33.175781 L 34.980469 34.746094 L 32.636719 34.746094 Z M 32.636719 33.175781 "/>
</g>
</svg>
