<?xml version="1.0" encoding="UTF-8"?>
<svg xmlns="http://www.w3.org/2000/svg" xmlns:xlink="http://www.w3.org/1999/xlink" width="px" height="30px" viewBox="0 0 30 30" version="1.1">
<g id="surface1">
<path style=" stroke:none;fill-rule:nonzero;fill:rgb(0%,0%,0%);fill-opacity:1;" d="M 15 8.992188 C 11.675781 8.992188 8.992188 11.675781 8.992188 15 C 8.992188 18.324219 11.675781 21.007812 15 21.007812 C 18.324219 21.007812 21.007812 18.324219 21.007812 15 C 21.007812 11.675781 18.324219 8.992188 15 8.992188 Z M 15 18.90625 C 12.851562 18.90625 11.09375 17.148438 11.09375 15 C 11.09375 12.847656 12.851562 11.09375 15 11.09375 C 17.148438 11.09375 18.90625 12.851562 18.90625 15 C 18.90625 17.148438 17.148438 18.90625 15 18.90625 Z M 21.253906 7.34375 C 20.476562 7.34375 19.851562 7.972656 19.851562 8.746094 C 19.851562 9.523438 20.476562 10.152344 21.253906 10.152344 C 22.03125 10.152344 22.65625 9.527344 22.65625 8.746094 C 22.65625 7.96875 22.03125 7.34375 21.253906 7.34375 Z M 21.253906 7.34375 "/>
<path style=" stroke:none;fill-rule:nonzero;fill:rgb(0%,0%,0%);fill-opacity:1;" d="M 26.710938 15 C 26.710938 13.382812 26.726562 11.78125 26.636719 10.164062 C 26.546875 8.289062 26.117188 6.625 24.746094 5.257812 C 23.375 3.882812 21.710938 3.457031 19.835938 3.367188 C 18.21875 3.277344 16.617188 3.289062 15.003906 3.289062 C 13.386719 3.289062 11.78125 3.277344 10.167969 3.367188 C 8.292969 3.457031 6.628906 3.882812 5.257812 5.257812 C 3.882812 6.628906 3.460938 8.289062 3.367188 10.164062 C 3.277344 11.78125 3.292969 13.386719 3.292969 15 C 3.292969 16.613281 3.277344 18.21875 3.367188 19.835938 C 3.460938 21.710938 3.886719 23.375 5.257812 24.742188 C 6.632812 26.117188 8.292969 26.542969 10.167969 26.632812 C 11.785156 26.726562 13.390625 26.710938 15.003906 26.710938 C 16.621094 26.710938 18.222656 26.726562 19.835938 26.632812 C 21.710938 26.542969 23.375 26.117188 24.746094 24.742188 C 26.121094 23.371094 26.546875 21.710938 26.636719 19.835938 C 26.730469 18.21875 26.714844 16.617188 26.714844 15 Z M 24.132812 21.90625 C 23.921875 22.441406 23.664062 22.839844 23.25 23.25 C 22.835938 23.664062 22.441406 23.921875 21.90625 24.132812 C 20.367188 24.746094 16.707031 24.609375 15 24.609375 C 13.292969 24.609375 9.628906 24.746094 8.089844 24.136719 C 7.554688 23.921875 7.15625 23.664062 6.746094 23.253906 C 6.335938 22.839844 6.078125 22.445312 5.863281 21.910156 C 5.253906 20.367188 5.390625 16.707031 5.390625 15 C 5.390625 13.292969 5.253906 9.628906 5.863281 8.089844 C 6.078125 7.554688 6.335938 7.15625 6.746094 6.746094 C 7.160156 6.335938 7.554688 6.078125 8.089844 5.863281 C 9.628906 5.253906 13.292969 5.390625 15 5.390625 C 16.707031 5.390625 20.371094 5.253906 21.910156 5.863281 C 22.445312 6.078125 22.84375 6.335938 23.253906 6.746094 C 23.664062 7.160156 23.921875 7.554688 24.136719 8.089844 C 24.746094 9.628906 24.609375 13.292969 24.609375 15 C 24.609375 16.707031 24.746094 20.367188 24.132812 21.90625 Z M 24.132812 21.90625 "/>
</g>
</svg>
