<?xml version="1.0" encoding="UTF-8"?>
<svg xmlns="http://www.w3.org/2000/svg" xmlns:xlink="http://www.w3.org/1999/xlink" width="30px" height="30px" viewBox="0 0 30 30" version="1.1">
<g id="surface1">
<path style=" stroke:none;fill-rule:nonzero;fill:rgb(0%,0%,0%);fill-opacity:1;" d="M 7.621094 4.558594 C 7.621094 5.359375 7.328125 6.039062 6.75 6.601562 C 6.171875 7.160156 5.421875 7.441406 4.5 7.441406 C 3.621094 7.441406 2.898438 7.160156 2.339844 6.601562 C 1.78125 6.039062 1.5 5.359375 1.5 4.558594 C 1.5 3.71875 1.78125 3.03125 2.339844 2.488281 C 2.898438 1.949219 3.640625 1.679688 4.558594 1.679688 C 5.480469 1.679688 6.210938 1.949219 6.75 2.488281 C 7.289062 3.03125 7.578125 3.71875 7.621094 4.558594 M 1.679688 28.261719 C 1.679688 28.261719 1.679688 9.71875 1.679688 9.71875 C 1.679688 9.71875 7.441406 9.71875 7.441406 9.71875 C 7.441406 9.71875 7.441406 28.261719 7.441406 28.261719 C 7.441406 28.261719 1.679688 28.261719 1.679688 28.261719 M 10.859375 15.660156 C 10.859375 13.941406 10.820312 11.960938 10.738281 9.71875 C 10.738281 9.71875 15.71875 9.71875 15.71875 9.71875 C 15.71875 9.71875 16.019531 12.300781 16.019531 12.300781 C 16.019531 12.300781 16.140625 12.300781 16.140625 12.300781 C 17.339844 10.300781 19.238281 9.300781 21.839844 9.300781 C 23.839844 9.300781 25.449219 9.96875 26.671875 11.308594 C 27.890625 12.648438 28.5 14.640625 28.5 17.28125 C 28.5 17.28125 28.5 28.261719 28.5 28.261719 C 28.5 28.261719 22.738281 28.261719 22.738281 28.261719 C 22.738281 28.261719 22.738281 18 22.738281 18 C 22.738281 15.320312 21.761719 13.980469 19.800781 13.980469 C 18.398438 13.980469 17.421875 14.699219 16.859375 16.140625 C 16.738281 16.378906 16.679688 16.859375 16.679688 17.578125 C 16.679688 17.578125 16.679688 28.261719 16.679688 28.261719 C 16.679688 28.261719 10.859375 28.261719 10.859375 28.261719 C 10.859375 28.261719 10.859375 15.660156 10.859375 15.660156 "/>
</g>
</svg>
