<?xml version="1.0" encoding="UTF-8"?>
<svg xmlns="http://www.w3.org/2000/svg" xmlns:xlink="http://www.w3.org/1999/xlink" width="60px" height="60px" viewBox="0 0 60 60" version="1.1">
<g id="surface1">
<path style=" stroke:none;fill-rule:nonzero;fill:rgb(52.54902%,52.54902%,62.745098%);fill-opacity:1;" d="M 30 18.75 C 23.625 18.75 18.75 23.625 18.75 30 C 18.75 36.375 23.625 41.25 30 41.25 C 36.375 41.25 41.25 36 41.25 30 C 41.25 23.625 36.375 18.75 30 18.75 Z M 30 37.5 C 25.875 37.5 22.5 34.125 22.5 30 C 22.5 25.875 25.875 22.5 30 22.5 C 34.125 22.5 37.5 25.875 37.5 30 C 37.5 34.125 34.125 37.5 30 37.5 Z M 52.875 22.5 C 51.75 22.5 51 21.75 50.625 21 C 49.875 19.5 49.125 18 48 16.5 C 47.25 15.75 47.25 14.625 48 13.875 L 51.375 7.5 L 38.25 0 L 34.875 6 C 34.5 7.125 33.75 7.5 32.625 7.5 L 27 7.5 C 26.25 7.5 25.5 7.125 25.125 6 L 21.375 0 L 8.625 7.5 L 12 13.5 C 12.375 14.25 12.375 15.375 12 16.125 C 10.875 18 10.125 19.5 9.375 21 C 9 21.75 8.25 22.5 7.125 22.5 L 0 22.5 L 0 37.5 L 7.125 37.5 C 8.25 37.5 9 38.25 9.375 39 C 10.125 40.5 10.875 42 12 43.5 C 12.75 44.25 12.75 45.375 12 46.125 L 8.625 52.5 L 21.75 60 L 25.125 54 C 25.5 52.875 26.25 52.5 27.375 52.5 L 33.375 52.5 C 34.125 52.5 35.25 52.875 35.625 53.625 L 39 59.625 L 52.125 52.125 L 48.75 45.75 C 48.375 45 48.375 43.875 48.75 43.125 C 49.875 41.625 50.625 40.5 51.375 38.625 C 51.75 37.875 52.875 37.125 53.625 37.125 L 60 37.125 L 60 22.5 Z M 56.25 33.75 L 52.875 33.75 C 50.25 33.75 48 35.25 47.25 37.5 C 46.875 38.625 46.125 40.125 45 41.25 C 43.5 43.125 43.5 46.125 44.625 48 L 46.125 51 L 39.75 54.75 L 38.25 51.75 C 37.125 49.875 34.875 48.75 32.625 48.75 L 27.375 48.75 C 25.125 48.75 22.875 49.875 21.75 51.75 L 20.25 54.75 L 13.875 51 L 15.375 48 C 16.5 46.125 16.5 43.125 15 41.25 C 14.25 40.125 13.5 39 12.75 37.5 C 12 35.25 9.75 33.75 7.125 33.75 L 3.75 33.75 L 3.75 26.25 L 7.125 26.25 C 9.75 26.25 12 24.75 12.75 22.5 C 13.5 21 14.25 19.875 15 18.75 C 16.5 16.875 16.5 13.875 15.375 12 L 13.5 9 L 19.875 5.25 L 21.375 8.25 C 22.875 10.125 25.125 11.25 27.375 11.25 L 32.625 11.25 C 34.875 11.25 37.125 10.125 38.25 8.25 L 39.75 5.25 L 46.125 9 L 44.625 12 C 43.5 13.875 43.5 16.875 45 18.75 C 45.75 19.875 46.5 21 47.25 22.5 C 48.375 24.75 50.625 26.25 52.875 26.25 L 56.25 26.25 Z M 56.25 33.75 "/>
</g>
</svg>
