<?xml version="1.0" encoding="UTF-8"?>
<svg xmlns="http://www.w3.org/2000/svg" xmlns:xlink="http://www.w3.org/1999/xlink" width="60px" height="60px" viewBox="0 0 60 60" version="1.1">
<g id="surface1">
<path style=" stroke:none;fill-rule:nonzero;fill:rgb(0%,0%,0%);fill-opacity:1;" d="M 56.589844 49.375 L 54.4375 49.375 L 54.4375 45.976562 C 54.4375 45.351562 53.929688 44.84375 53.304688 44.84375 L 48.777344 44.84375 C 48.148438 44.84375 47.644531 45.351562 47.644531 45.976562 L 47.644531 49.375 L 45.296875 49.375 C 44.746094 45.539062 41.4375 42.578125 37.449219 42.578125 L 35.636719 42.578125 C 35.636719 42.578125 35.628906 35.074219 35.613281 35 C 35.75 33.320312 35.179688 31.59375 33.894531 30.3125 L 27.910156 24.324219 L 34.996094 17.238281 C 35.339844 16.894531 35.628906 16.503906 35.855469 16.078125 L 42.886719 16.078125 C 43.511719 16.078125 44.019531 15.570312 44.019531 14.945312 L 44.019531 13.8125 L 46.660156 13.8125 L 46.660156 14.945312 C 46.660156 15.351562 46.878906 15.722656 47.226562 15.925781 L 51.15625 18.195312 C 51.328125 18.292969 51.523438 18.34375 51.71875 18.34375 C 51.917969 18.34375 52.113281 18.292969 52.285156 18.195312 L 56.214844 15.925781 C 56.753906 15.613281 56.941406 14.921875 56.628906 14.378906 C 56.316406 13.835938 55.621094 13.652344 55.082031 13.964844 L 51.71875 15.90625 L 48.925781 14.292969 L 48.925781 11.066406 L 51.71875 9.453125 L 55.082031 11.394531 C 55.621094 11.707031 56.316406 11.519531 56.628906 10.976562 C 56.941406 10.4375 56.753906 9.742188 56.214844 9.429688 L 52.285156 7.164062 C 51.9375 6.960938 51.503906 6.960938 51.15625 7.164062 L 47.226562 9.429688 C 46.878906 9.632812 46.660156 10.007812 46.660156 10.410156 L 46.660156 11.546875 L 44.019531 11.546875 L 44.019531 10.414062 C 44.019531 9.789062 43.511719 9.28125 42.886719 9.28125 L 33.152344 9.28125 C 31.46875 8.707031 29.53125 9.089844 28.191406 10.429688 L 19.949219 18.667969 C 16.902344 19.210938 14.578125 21.878906 14.578125 25.082031 C 14.578125 27.222656 15.617188 29.128906 17.21875 30.316406 C 17.421875 30.609375 17.652344 30.886719 17.910156 31.144531 L 24.109375 37.34375 L 24.109375 42.578125 L 22.726562 42.578125 C 18.738281 42.578125 15.433594 45.539062 14.878906 49.375 L 12.53125 49.375 L 12.53125 45.976562 C 12.53125 45.351562 12.027344 44.84375 11.398438 44.84375 L 6.871094 44.84375 C 6.246094 44.84375 5.738281 45.351562 5.738281 45.976562 L 5.738281 49.375 L 3.585938 49.375 C 2.960938 49.375 2.453125 49.882812 2.453125 50.507812 C 2.453125 51.132812 2.960938 51.640625 3.585938 51.640625 L 56.589844 51.640625 C 57.214844 51.640625 57.722656 51.132812 57.722656 50.507812 C 57.722656 49.882812 57.214844 49.375 56.589844 49.375 Z M 41.753906 11.546875 L 41.753906 13.8125 L 36.40625 13.8125 C 36.402344 13.03125 36.207031 12.25 35.828125 11.546875 Z M 10.265625 49.375 L 8.003906 49.375 L 8.003906 47.109375 L 10.269531 47.109375 L 10.269531 49.375 Z M 29.792969 12.03125 C 30.273438 11.550781 30.914062 11.285156 31.59375 11.285156 C 32.273438 11.285156 32.914062 11.550781 33.394531 12.03125 C 34.390625 13.023438 34.390625 14.640625 33.394531 15.636719 L 26.894531 22.136719 C 26.097656 20.570312 24.683594 19.367188 22.976562 18.847656 Z M 16.839844 25.082031 C 16.839844 22.738281 18.746094 20.832031 21.089844 20.832031 C 23.429688 20.832031 25.335938 22.738281 25.335938 25.082031 C 25.335938 27.421875 23.429688 29.328125 21.089844 29.328125 C 18.746094 29.328125 16.839844 27.421875 16.839844 25.082031 Z M 21.542969 31.574219 C 24.285156 31.386719 26.566406 29.492188 27.328125 26.945312 L 32.292969 31.914062 C 33.730469 33.347656 33.730469 35.683594 32.292969 37.121094 C 31.597656 37.816406 30.675781 38.199219 29.691406 38.199219 C 28.707031 38.199219 27.785156 37.816406 27.089844 37.121094 Z M 33.371094 39.183594 L 33.371094 42.578125 L 26.375 42.578125 L 26.375 39.453125 C 27.375 40.125 28.53125 40.460938 29.691406 40.460938 C 30.996094 40.460938 32.296875 40.035156 33.371094 39.183594 Z M 17.175781 49.375 C 17.703125 46.792969 19.992188 44.84375 22.726562 44.84375 L 37.449219 44.84375 C 40.183594 44.84375 42.472656 46.792969 43 49.375 Z M 52.171875 49.375 L 49.90625 49.375 L 49.90625 47.109375 L 52.171875 47.109375 Z M 52.171875 49.375 "/>
<path style=" stroke:none;fill-rule:nonzero;fill:rgb(0%,0%,0%);fill-opacity:1;" d="M 21.089844 23.949219 C 20.464844 23.949219 19.957031 24.457031 19.957031 25.082031 C 19.957031 25.707031 20.464844 26.214844 21.089844 26.214844 C 21.714844 26.214844 22.222656 25.707031 22.222656 25.082031 C 22.222656 24.457031 21.714844 23.949219 21.089844 23.949219 Z M 21.089844 23.949219 "/>
</g>
</svg>
