<?xml version="1.0" encoding="UTF-8"?>
<svg xmlns="http://www.w3.org/2000/svg" xmlns:xlink="http://www.w3.org/1999/xlink" width="px" height="30px" viewBox="0 0 30 30" version="1.1">
<g id="surface1">
<path style=" stroke:none;fill-rule:nonzero;fill:rgb(0%,0%,0%);fill-opacity:1;" d="M 25.59375 4.40625 C 22.78125 1.546875 19.03125 0 15 0 C 10.96875 0 7.21875 1.546875 4.40625 4.40625 C 1.59375 7.265625 0 10.96875 0 15 C 0 19.03125 1.546875 22.78125 4.40625 25.59375 C 7.265625 28.40625 10.96875 30 15 30 C 19.03125 30 22.78125 28.453125 25.59375 25.59375 C 28.40625 22.734375 30 19.03125 30 15 C 30 10.96875 28.453125 7.21875 25.59375 4.40625 Z M 15 28.546875 C 7.5 28.546875 1.453125 22.5 1.453125 15 C 1.453125 7.5 7.5 1.453125 15 1.453125 C 22.5 1.453125 28.546875 7.546875 28.546875 15 C 28.546875 22.453125 22.5 28.546875 15 28.546875 Z M 15 28.546875 "/>
<path style=" stroke:none;fill-rule:nonzero;fill:rgb(0%,0%,0%);fill-opacity:1;" d="M 22.078125 8.0625 C 21.5625 7.734375 20.765625 8.015625 20.578125 8.109375 L 6.234375 13.6875 C 5.71875 13.875 5.15625 14.296875 5.25 14.953125 C 5.34375 15.703125 6.140625 15.984375 6.234375 16.03125 L 9.5625 17.15625 C 9.796875 18 10.59375 20.578125 10.78125 21.140625 C 10.921875 21.609375 11.109375 22.171875 11.625 22.171875 C 11.671875 22.21875 11.765625 22.21875 11.90625 22.21875 C 12.234375 22.21875 12.421875 22.125 12.515625 21.984375 L 14.4375 20.203125 L 17.671875 22.6875 C 17.71875 22.734375 17.71875 22.734375 17.8125 22.734375 C 18.09375 22.875 18.328125 22.875 18.515625 22.875 C 18.703125 22.875 18.9375 22.828125 19.03125 22.78125 C 19.59375 22.546875 19.828125 22.03125 19.875 21.9375 C 19.875 21.890625 19.921875 21.890625 19.921875 21.84375 L 22.5 9 L 22.5 8.90625 C 22.5 8.390625 22.21875 8.15625 22.078125 8.0625 Z M 12.421875 20.578125 L 12.609375 18.796875 L 13.546875 19.5 Z M 18.84375 21.609375 C 18.796875 21.65625 18.75 21.75 18.65625 21.796875 C 18.5625 21.84375 18.46875 21.84375 18.328125 21.75 L 14.765625 18.984375 L 12.984375 17.578125 C 14.484375 16.265625 19.125 12.09375 19.3125 11.859375 C 19.5 11.671875 19.734375 11.4375 19.6875 11.109375 C 19.6875 11.0625 19.6875 11.0625 19.640625 11.015625 C 19.59375 10.828125 19.5 10.640625 19.3125 10.546875 C 18.984375 10.359375 18.609375 10.5 18.28125 10.6875 L 9.84375 16.078125 L 6.515625 14.953125 C 6.46875 14.90625 6.375 14.90625 6.328125 14.8125 C 6.375 14.765625 6.46875 14.71875 6.515625 14.71875 L 6.5625 14.71875 L 20.859375 9.09375 L 20.90625 9.09375 C 21 9.046875 21.140625 9 21.28125 9 Z M 18.84375 21.609375 "/>
</g>
</svg>
