<?xml version="1.0" encoding="UTF-8"?>
<svg xmlns="http://www.w3.org/2000/svg" xmlns:xlink="http://www.w3.org/1999/xlink" width="60px" height="60px" viewBox="0 0 60 60" version="1.1">
<g id="surface1">
<path style=" stroke:none;fill-rule:nonzero;fill:rgb(100%,100%,100%);fill-opacity:1;" d="M 30 15 C 19.125 15 9.421875 20.15625 3.234375 28.125 C 2.390625 29.203125 2.390625 30.75 3.234375 31.828125 C 9.421875 39.84375 19.125 45 30 45 C 40.875 45 50.578125 39.84375 56.765625 31.875 C 57.609375 30.796875 57.609375 29.25 56.765625 28.171875 C 50.578125 20.15625 40.875 15 30 15 Z M 30 15 "/>
<path style=" stroke:none;fill-rule:nonzero;fill:rgb(60%,85.098039%,90.196078%);fill-opacity:1;" d="M 15.84375 30 C 15.84375 37.816406 22.183594 44.15625 30 44.15625 C 37.816406 44.15625 44.15625 37.816406 44.15625 30 C 44.15625 22.183594 37.816406 15.84375 30 15.84375 C 22.183594 15.84375 15.84375 22.183594 15.84375 30 Z M 15.84375 30 "/>
<path style=" stroke:none;fill-rule:nonzero;fill:rgb(57.647059%,53.72549%,57.647059%);fill-opacity:1;" d="M 23.203125 30 C 23.203125 33.753906 26.246094 36.796875 30 36.796875 C 33.753906 36.796875 36.796875 33.753906 36.796875 30 C 36.796875 26.246094 33.753906 23.203125 30 23.203125 C 26.246094 23.203125 23.203125 26.246094 23.203125 30 Z M 23.203125 30 "/>
<path style=" stroke:none;fill-rule:nonzero;fill:rgb(41.568627%,34.117647%,42.745098%);fill-opacity:1;" d="M 30 37.265625 C 26.015625 37.265625 22.734375 34.03125 22.734375 30 C 22.734375 25.96875 26.015625 22.734375 30 22.734375 C 33.984375 22.734375 37.265625 26.015625 37.265625 30 C 37.265625 33.984375 33.984375 37.265625 30 37.265625 Z M 30 23.671875 C 26.53125 23.671875 23.671875 26.484375 23.671875 30 C 23.671875 33.515625 26.484375 36.328125 30 36.328125 C 33.515625 36.328125 36.328125 33.515625 36.328125 30 C 36.328125 26.484375 33.46875 23.671875 30 23.671875 Z M 30 23.671875 "/>
<path style=" stroke:none;fill-rule:nonzero;fill:rgb(100%,100%,100%);fill-opacity:1;" d="M 1.875 30 C 4.40625 33.75 7.640625 36.9375 11.390625 39.421875 C 13.6875 32.90625 18.890625 22.03125 29.625 15.046875 C 18.09375 15.140625 7.875 21.046875 1.875 30 Z M 1.875 30 "/>
<path style=" stroke:none;fill-rule:nonzero;fill:rgb(100%,100%,100%);fill-opacity:1;" d="M 30 15 C 18.28125 15 7.96875 20.953125 1.875 30 C 1.875 30 29.390625 17.0625 58.125 30 C 52.03125 20.953125 41.71875 15 30 15 Z M 30 15 "/>
<path style=" stroke:none;fill-rule:nonzero;fill:rgb(41.568627%,34.117647%,42.745098%);fill-opacity:1;" d="M 30 44.625 C 21.9375 44.625 15.375 38.0625 15.375 30 C 15.375 21.9375 21.9375 15.375 30 15.375 C 38.0625 15.375 44.625 21.9375 44.625 30 C 44.625 38.0625 38.0625 44.625 30 44.625 Z M 30 16.3125 C 22.453125 16.3125 16.3125 22.453125 16.3125 30 C 16.3125 37.546875 22.453125 43.6875 30 43.6875 C 37.546875 43.6875 43.6875 37.546875 43.6875 30 C 43.6875 22.453125 37.546875 16.3125 30 16.3125 Z M 30 16.3125 "/>
<path style=" stroke:none;fill-rule:nonzero;fill:rgb(41.568627%,34.117647%,42.745098%);fill-opacity:1;" d="M 30 37.265625 C 26.015625 37.265625 22.734375 34.03125 22.734375 30 C 22.734375 25.96875 26.015625 22.734375 30 22.734375 C 33.984375 22.734375 37.265625 26.015625 37.265625 30 C 37.265625 33.984375 33.984375 37.265625 30 37.265625 Z M 30 23.671875 C 26.53125 23.671875 23.671875 26.484375 23.671875 30 C 23.671875 33.515625 26.484375 36.328125 30 36.328125 C 33.515625 36.328125 36.328125 33.515625 36.328125 30 C 36.328125 26.484375 33.46875 23.671875 30 23.671875 Z M 30 23.671875 "/>
<path style=" stroke:none;fill-rule:nonzero;fill:rgb(41.568627%,34.117647%,42.745098%);fill-opacity:1;" d="M 30 45.46875 C 29.71875 45.46875 29.53125 45.28125 29.53125 45 C 29.53125 44.71875 29.71875 44.53125 30 44.53125 C 40.40625 44.53125 50.015625 39.796875 56.4375 31.59375 C 57.140625 30.65625 57.140625 29.390625 56.4375 28.453125 C 50.015625 20.203125 40.40625 15.46875 30 15.46875 C 29.71875 15.46875 29.53125 15.28125 29.53125 15 C 29.53125 14.71875 29.71875 14.53125 30 14.53125 C 40.6875 14.53125 50.578125 19.40625 57.140625 27.84375 C 58.125 29.109375 58.125 30.84375 57.140625 32.109375 C 50.578125 40.59375 40.6875 45.46875 30 45.46875 Z M 30 45.46875 "/>
<path style=" stroke:none;fill-rule:nonzero;fill:rgb(41.568627%,34.117647%,42.745098%);fill-opacity:1;" d="M 30 45.46875 C 19.3125 45.46875 9.421875 40.59375 2.859375 32.15625 C 1.875 30.90625 1.875 29.140625 2.859375 27.890625 C 9.421875 19.40625 19.3125 14.53125 30 14.53125 C 30.28125 14.53125 30.46875 14.71875 30.46875 15 C 30.46875 15.28125 30.28125 15.46875 30 15.46875 C 19.59375 15.46875 9.984375 20.203125 3.5625 28.453125 C 2.859375 29.390625 2.859375 30.65625 3.5625 31.59375 C 9.984375 39.796875 19.59375 44.53125 30 44.53125 C 30.28125 44.53125 30.46875 44.71875 30.46875 45 C 30.46875 45.28125 30.28125 45.46875 30 45.46875 Z M 30 45.46875 "/>
</g>
</svg>
